<svg width="22" height="22" viewBox="0 0 22 22" fill="none" xmlns="http://www.w3.org/2000/svg">
<path d="M9.62039 15.05C9.35284 15.0502 9.09531 14.9483 8.90039 14.765L6.15539 12.14C5.95647 11.9411 5.84473 11.6713 5.84473 11.39C5.84473 11.1087 5.95647 10.8389 6.15539 10.64C6.3543 10.4411 6.62408 10.3293 6.90539 10.3293C7.18669 10.3293 7.45647 10.4411 7.65539 10.64L9.62039 12.5L14.4054 7.99999C14.6043 7.80108 14.8741 7.68933 15.1554 7.68933C15.4367 7.68933 15.7065 7.80108 15.9054 7.99999C16.1043 8.1989 16.216 8.46869 16.216 8.74999C16.216 9.0313 16.1043 9.30108 15.9054 9.49999L10.4154 14.75C10.3111 14.8526 10.1865 14.9323 10.0496 14.984C9.91268 15.0357 9.76649 15.0581 9.62039 15.05Z" fill="#0669C8"/>
<path d="M11.0002 21.05C9.0125 21.05 7.06943 20.4606 5.41672 19.3563C3.76401 18.252 2.47587 16.6824 1.71521 14.846C0.95455 13.0096 0.755526 10.9889 1.14331 9.03936C1.53109 7.08985 2.48826 5.29911 3.89378 3.89359C5.29929 2.48808 7.09003 1.53091 9.03954 1.14312C10.9891 0.755343 13.0098 0.954367 14.8462 1.71503C16.6826 2.47569 18.2522 3.76382 19.3565 5.41654C20.4608 7.06925 21.0502 9.01231 21.0502 11C21.0462 13.6642 19.9861 16.2182 18.1022 18.1021C16.2184 19.9859 13.6644 21.046 11.0002 21.05ZM11.0002 3.05002C9.42784 3.05002 7.89079 3.51628 6.58342 4.38983C5.27605 5.26339 4.25707 6.50501 3.65536 7.95768C3.05364 9.41036 2.8962 11.0088 3.20296 12.551C3.50971 14.0931 4.26687 15.5097 5.3787 16.6215C6.49053 17.7333 7.90708 18.4905 9.44923 18.7973C10.9914 19.104 12.5899 18.9466 14.0425 18.3449C15.4952 17.7431 16.7368 16.7242 17.6104 15.4168C18.4839 14.1094 18.9502 12.5724 18.9502 11C18.9462 8.89276 18.1074 6.87295 16.6173 5.3829C15.1273 3.89284 13.1075 3.05398 11.0002 3.05002Z" fill="#0669C8"/>
</svg>
