<svg width="68" height="68" viewBox="0 0 68 68" fill="none" xmlns="http://www.w3.org/2000/svg">
<path d="M63.4667 30.6C63.7672 30.6 64.0555 30.4806 64.2681 30.2681C64.4806 30.0555 64.6 29.7672 64.6 29.4667V22.508C65.6683 22.2322 66.5994 21.5761 67.2187 20.6629C67.8379 19.7497 68.1029 18.642 67.9639 17.5474C67.8248 16.4528 67.2914 15.4465 66.4635 14.7171C65.6356 13.9877 64.57 13.5853 63.4667 13.5853C62.3633 13.5853 61.2978 13.9877 60.4699 14.7171C59.642 15.4465 59.1085 16.4528 58.9695 17.5474C58.8304 18.642 59.0954 19.7497 59.7146 20.6629C60.3339 21.5761 61.265 22.2322 62.3333 22.508V28.3333H43.0667V24.9333H39.6667V5.66668H45.492C45.7678 6.73502 46.4239 7.66609 47.3371 8.28536C48.2503 8.90462 49.358 9.16957 50.4526 9.03054C51.5472 8.89151 52.5535 8.35805 53.2829 7.53014C54.0123 6.70223 54.4147 5.63673 54.4147 4.53334C54.4147 3.42996 54.0123 2.36445 53.2829 1.53655C52.5535 0.70864 51.5472 0.175174 50.4526 0.0361431C49.358 -0.102888 48.2503 0.162062 47.3371 0.781329C46.4239 1.4006 45.7678 2.33166 45.492 3.40001H38.5333C38.2328 3.40001 37.9445 3.51941 37.7319 3.73196C37.5194 3.9445 37.4 4.23276 37.4 4.53334V24.9333H35.1333V13.6H32.8667V24.9333H30.6V4.53334C30.6 4.23276 30.4806 3.9445 30.2681 3.73196C30.0555 3.51941 29.7672 3.40001 29.4667 3.40001H22.508C22.2322 2.33166 21.5761 1.4006 20.6629 0.781329C19.7497 0.162062 18.642 -0.102888 17.5474 0.0361431C16.4528 0.175174 15.4465 0.70864 14.7171 1.53655C13.9877 2.36445 13.5853 3.42996 13.5853 4.53334C13.5853 5.63673 13.9877 6.70223 14.7171 7.53014C15.4465 8.35805 16.4528 8.89151 17.5474 9.03054C18.642 9.16957 19.7497 8.90462 20.6629 8.28536C21.5761 7.66609 22.2322 6.73502 22.508 5.66668H28.3333V24.9333H24.9333V28.3333H5.66668V22.508C6.73502 22.2322 7.66609 21.5761 8.28536 20.6629C8.90462 19.7497 9.16957 18.642 9.03054 17.5474C8.89151 16.4528 8.35805 15.4465 7.53014 14.7171C6.70223 13.9877 5.63673 13.5853 4.53334 13.5853C3.42996 13.5853 2.36445 13.9877 1.53655 14.7171C0.70864 15.4465 0.175174 16.4528 0.0361431 17.5474C-0.102888 18.642 0.162062 19.7497 0.781329 20.6629C1.4006 21.5761 2.33166 22.2322 3.40001 22.508V29.4667C3.40001 29.7672 3.51941 30.0555 3.73196 30.2681C3.9445 30.4806 4.23276 30.6 4.53334 30.6H24.9333V32.8667H13.6V35.1333H24.9333V37.4H4.53334C4.23276 37.4 3.9445 37.5194 3.73196 37.7319C3.51941 37.9445 3.40001 38.2328 3.40001 38.5333V45.492C2.33166 45.7678 1.4006 46.4239 0.781329 47.3371C0.162062 48.2503 -0.102888 49.358 0.0361431 50.4526C0.175174 51.5472 0.70864 52.5535 1.53655 53.2829C2.36445 54.0123 3.42996 54.4147 4.53334 54.4147C5.63673 54.4147 6.70223 54.0123 7.53014 53.2829C8.35805 52.5535 8.89151 51.5472 9.03054 50.4526C9.16957 49.358 8.90462 48.2503 8.28536 47.3371C7.66609 46.4239 6.73502 45.7678 5.66668 45.492V39.6667H24.9333V43.0667H28.3333V62.3333H22.508C22.2322 61.265 21.5761 60.3339 20.6629 59.7146C19.7497 59.0954 18.642 58.8304 17.5474 58.9695C16.4528 59.1085 15.4465 59.642 14.7171 60.4699C13.9877 61.2978 13.5853 62.3633 13.5853 63.4667C13.5853 64.57 13.9877 65.6356 14.7171 66.4635C15.4465 67.2914 16.4528 67.8248 17.5474 67.9639C18.642 68.1029 19.7497 67.8379 20.6629 67.2187C21.5761 66.5994 22.2322 65.6683 22.508 64.6H29.4667C29.7672 64.6 30.0555 64.4806 30.2681 64.2681C30.4806 64.0555 30.6 63.7672 30.6 63.4667V43.0667H32.8667V54.4H35.1333V43.0667H37.4V63.4667C37.4 63.7672 37.5194 64.0555 37.7319 64.2681C37.9445 64.4806 38.2328 64.6 38.5333 64.6H45.492C45.7678 65.6683 46.4239 66.5994 47.3371 67.2187C48.2503 67.8379 49.358 68.1029 50.4526 67.9639C51.5472 67.8248 52.5535 67.2914 53.2829 66.4635C54.0123 65.6356 54.4147 64.57 54.4147 63.4667C54.4147 62.3633 54.0123 61.2978 53.2829 60.4699C52.5535 59.642 51.5472 59.1085 50.4526 58.9695C49.358 58.8304 48.2503 59.0954 47.3371 59.7146C46.4239 60.3339 45.7678 61.265 45.492 62.3333H39.6667V43.0667H43.0667V39.6667H62.3333V45.492C61.265 45.7678 60.3339 46.4239 59.7146 47.3371C59.0954 48.2503 58.8304 49.358 58.9695 50.4526C59.1085 51.5472 59.642 52.5535 60.4699 53.2829C61.2978 54.0123 62.3633 54.4147 63.4667 54.4147C64.57 54.4147 65.6356 54.0123 66.4635 53.2829C67.2914 52.5535 67.8248 51.5472 67.9639 50.4526C68.1029 49.358 67.8379 48.2503 67.2187 47.3371C66.5994 46.4239 65.6683 45.7678 64.6 45.492V38.5333C64.6 38.2328 64.4806 37.9445 64.2681 37.7319C64.0555 37.5194 63.7672 37.4 63.4667 37.4H43.0667V35.1333H54.4V32.8667H43.0667V30.6H63.4667ZM35.1333 39.6667H28.3333V37.4H35.1333V39.6667ZM31.7333 35.1333C31.0609 35.1333 30.4035 34.9339 29.8444 34.5603C29.2853 34.1867 28.8495 33.6557 28.5921 33.0345C28.3348 32.4132 28.2675 31.7296 28.3987 31.07C28.5299 30.4105 28.8537 29.8047 29.3292 29.3292C29.8047 28.8537 30.4105 28.5299 31.07 28.3987C31.7296 28.2675 32.4132 28.3348 33.0345 28.5921C33.6557 28.8495 34.1867 29.2853 34.5603 29.8444C34.9339 30.4035 35.1333 31.0609 35.1333 31.7333C35.1333 32.6351 34.7751 33.4999 34.1375 34.1375C33.4999 34.7751 32.6351 35.1333 31.7333 35.1333ZM39.6667 35.1333H37.4V28.3333H39.6667V35.1333Z" fill="white"/>
</svg>
