<svg width="32" height="32" viewBox="0 0 32 32" fill="none" xmlns="http://www.w3.org/2000/svg">
<path d="M16 32C24.8366 32 32 24.8366 32 16C32 7.16344 24.8366 0 16 0C7.16344 0 0 7.16344 0 16C0 24.8366 7.16344 32 16 32Z" fill="#E2F0FF"/>
<path d="M21.4731 13.0317C21.4171 12.8969 21.31 12.7898 21.1752 12.7338C21.1088 12.7055 21.0376 12.6905 20.9655 12.6896H18.2069C18.0606 12.6896 17.9202 12.7478 17.8168 12.8512C17.7133 12.9547 17.6552 13.095 17.6552 13.2414C17.6552 13.3877 17.7133 13.528 17.8168 13.6315C17.9202 13.735 18.0606 13.7931 18.2069 13.7931H19.6359L16.5517 16.8772L14.7365 15.0565C14.6853 15.0048 14.6242 14.9638 14.557 14.9358C14.4898 14.9078 14.4177 14.8933 14.3448 14.8933C14.272 14.8933 14.1999 14.9078 14.1326 14.9358C14.0654 14.9638 14.0044 15.0048 13.9531 15.0565L10.6428 18.3669C10.591 18.4182 10.55 18.4792 10.522 18.5464C10.494 18.6137 10.4796 18.6858 10.4796 18.7586C10.4796 18.8314 10.494 18.9035 10.522 18.9708C10.55 19.038 10.591 19.099 10.6428 19.1503C10.694 19.202 10.7551 19.2431 10.8223 19.2711C10.8895 19.2991 10.9616 19.3135 11.0345 19.3135C11.1073 19.3135 11.1794 19.2991 11.2467 19.2711C11.3139 19.2431 11.3749 19.202 11.4262 19.1503L14.3448 16.2262L16.16 18.0469C16.2113 18.0986 16.2723 18.1396 16.3395 18.1676C16.4068 18.1957 16.4789 18.2101 16.5517 18.2101C16.6246 18.2101 16.6967 18.1957 16.7639 18.1676C16.8311 18.1396 16.8922 18.0986 16.9434 18.0469L20.4138 14.571V16C20.4138 16.1463 20.4719 16.2866 20.5754 16.3901C20.6789 16.4936 20.8192 16.5517 20.9655 16.5517C21.1118 16.5517 21.2522 16.4936 21.3556 16.3901C21.4591 16.2866 21.5172 16.1463 21.5172 16V13.2414C21.5164 13.1693 21.5014 13.098 21.4731 13.0317Z" fill="#0080FF"/>
</svg>
