<svg width="72" height="69" viewBox="0 0 72 69" fill="none" xmlns="http://www.w3.org/2000/svg">
<path d="M66.3004 39.6276C66.299 39.6276 66.2963 39.6276 66.295 39.6276L42.9643 41.7C41.1379 39.9918 38.6932 38.9382 36.0013 38.9382C33.3121 38.9382 30.8689 39.9905 29.0424 41.6959L5.58674 39.6222C1.72696 39.6222 0 44.7722 0 49.8765C0 54.978 1.72561 60.1253 5.69963 60.1253C5.70098 60.1253 5.70366 60.1253 5.70501 60.1253L19.8136 58.8795L18.1512 60.5406C17.7184 60.972 17.6324 61.6413 17.9415 62.1694C18.2506 62.6976 18.8769 62.9516 19.4656 62.785L25.7753 61.0083L24.8803 66.7523C24.7902 67.3355 25.0899 67.9094 25.6221 68.1674C25.8089 68.2588 26.0105 68.3032 26.2081 68.3032C26.5736 68.3032 26.9325 68.1553 27.1932 67.8744L35.1359 59.3297C35.4208 59.3539 35.707 59.3741 35.9987 59.3741C36.2903 59.3741 36.5765 59.3539 36.8615 59.3297L44.8041 67.8744C45.0648 68.1553 45.4237 68.3032 45.7892 68.3032C45.9868 68.3032 46.1884 68.2602 46.3752 68.1674C46.9074 67.9107 47.2071 67.3355 47.117 66.7523L46.222 61.0083L52.5318 62.785C53.1231 62.953 53.7467 62.6976 54.0558 62.1694C54.3649 61.6413 54.2789 60.972 53.8461 60.5406L52.1823 58.8795L66.4133 60.1307C70.273 60.1307 72 54.9807 72 49.8765C72 44.7749 70.2744 39.6276 66.3004 39.6276ZM5.58674 57.4428C3.9888 57.4428 2.68787 54.0494 2.68787 49.8765C2.68787 45.7035 3.9888 42.3101 5.46847 42.3047L27.0655 44.2131C26.2511 45.6794 25.7847 47.3633 25.7847 49.1561C25.7847 50.285 25.9769 51.3682 26.3156 52.3856L22.777 55.9201L5.58674 57.4428ZM28.2119 62.8307L28.7535 59.3539C28.8234 58.901 28.6594 58.4441 28.3167 58.1417C27.974 57.8379 27.5023 57.7331 27.0601 57.8527L23.6949 58.8002L24.3938 58.1027C24.4059 58.0893 24.4207 58.0785 24.4314 58.0651L27.5749 54.9243C28.6971 56.5572 30.2802 57.8473 32.1362 58.6094L28.2119 62.8307ZM28.4713 49.1561C28.4713 47.202 29.2252 45.4254 30.4509 44.0854C30.4858 44.0545 30.5127 44.0182 30.5436 43.9833C31.9171 42.5345 33.8524 41.626 36 41.626C40.1514 41.626 43.5287 45.0047 43.5287 49.1561C43.5287 53.3075 40.1514 56.6835 36 56.6835C31.8486 56.6835 28.4713 53.3075 28.4713 49.1561ZM44.9385 57.8514C44.4977 57.7318 44.026 57.8366 43.6819 58.1403C43.3406 58.4441 43.1753 58.8996 43.2452 59.3526L43.7868 62.8293L39.8625 58.6067C41.7185 57.8447 43.3029 56.5558 44.4238 54.9216L47.5673 58.0624C47.5793 58.0758 47.5928 58.0866 47.6049 58.1L48.3037 58.7975L44.9385 57.8514ZM68.3579 55.478C67.979 56.3744 67.3325 57.4428 66.5315 57.4482L49.2243 55.9201L45.6857 52.3856C46.0258 51.3696 46.2166 50.2864 46.2166 49.1561C46.2166 47.366 45.7503 45.6834 44.9385 44.2185L66.4133 42.3101C68.0112 42.3101 69.3121 45.7035 69.3121 49.8765C69.3121 52.0039 68.9641 54.044 68.3579 55.478Z" fill="white"/>
<path d="M36.0023 43.9363C33.125 43.9363 30.7838 46.2774 30.7838 49.1561C30.7838 52.0335 33.125 54.3746 36.0023 54.3746C38.8797 54.3746 41.2209 52.0335 41.2209 49.1561C41.2209 46.2774 38.8797 43.9363 36.0023 43.9363ZM36.0023 51.6867C34.606 51.6867 33.4717 50.5511 33.4717 49.1561C33.4717 47.7598 34.606 46.6241 36.0023 46.6241C37.3987 46.6241 38.533 47.7598 38.533 49.1561C38.533 50.5511 37.3987 51.6867 36.0023 51.6867ZM4.72091 16.1733L17.5313 21.8326V31.814C17.5313 34.0919 20.8105 34.9171 24.0185 35.4238C27.1915 35.9251 31.4478 36.2006 36.0023 36.2006C44.4288 36.2006 54.4734 35.4399 54.4734 31.814V21.8326L58.4595 20.072V21.3461C57.5107 21.9307 56.8616 23.1053 56.8347 24.5151L56.1426 30.1179C56.0955 30.501 56.2151 30.884 56.4705 31.1729C56.7245 31.4619 57.0914 31.6272 57.4771 31.6272H62.1311C62.5169 31.6272 62.8838 31.4619 63.1378 31.1729C63.3931 30.884 63.5127 30.501 63.4657 30.1179L62.7735 24.5151C62.7467 23.1053 62.0975 21.9293 61.1487 21.3461V18.884L67.2851 16.1733C67.7716 15.9582 68.0861 15.4758 68.0861 14.9436C68.0861 14.4114 67.773 13.9302 67.2865 13.7152L36.5466 0.115914C36.1999 -0.0386381 35.8048 -0.0386381 35.4581 0.115914L4.71956 13.7152C4.23306 13.9302 3.91992 14.4127 3.91992 14.9436C3.91992 15.4758 4.2344 15.9582 4.72091 16.1733ZM58.9971 28.9393L59.5118 24.7691C59.5185 24.714 59.5212 24.6589 59.5212 24.6038C59.5212 24.128 59.6879 23.8014 59.8021 23.6751C59.9163 23.8028 60.083 24.1294 60.083 24.6038C60.083 24.6589 60.0857 24.714 60.0924 24.7691L60.6071 28.9393H58.9971ZM20.2178 17.3626C20.453 16.3547 25.9282 14.5538 36.0023 14.5538C46.0765 14.5538 51.5517 16.3547 51.7855 17.3586V28.6315C47.7013 26.6922 39.9764 26.4127 36.0023 26.4127C32.0283 26.4127 24.302 26.6922 20.2192 28.6315L20.2178 17.3626ZM20.3267 31.654C21.1613 30.6958 26.2427 29.1006 36.0023 29.1006C45.8077 29.1006 50.8878 30.7106 51.6834 31.6514C50.4752 32.4523 45.0605 33.5114 36.0023 33.5114C26.9577 33.5114 21.5456 32.4564 20.3267 31.654ZM61.1474 15.9448V13.9383L63.4173 14.9422L61.1474 15.9448ZM36.0023 2.81319L58.4595 12.7476V17.1301L54.4734 18.8907V17.3559C54.4734 12.2597 40.3352 11.8633 36.0023 11.8633C31.6695 11.8633 17.5313 12.2597 17.5313 17.3559V18.8907L8.58741 14.9395L36.0023 2.81319Z" fill="white"/>
</svg>
