<svg width="32" height="32" viewBox="0 0 32 32" fill="none" xmlns="http://www.w3.org/2000/svg">
<path d="M16 32C24.8366 32 32 24.8366 32 16C32 7.16344 24.8366 0 16 0C7.16344 0 0 7.16344 0 16C0 24.8366 7.16344 32 16 32Z" fill="#FFF5DE"/>
<path fill-rule="evenodd" clip-rule="evenodd" d="M14.2073 16.0406C13.4679 16.0406 12.8685 16.64 12.8685 17.3794C12.8685 18.1188 13.4679 18.7181 14.2073 18.7181C14.9466 18.7181 15.546 18.1188 15.546 17.3794C15.546 16.64 14.9466 16.0406 14.2073 16.0406ZM12.1383 17.3794C12.1383 16.2367 13.0646 15.3104 14.2073 15.3104C15.3499 15.3104 16.2762 16.2367 16.2762 17.3794C16.2762 18.522 15.3499 19.4484 14.2073 19.4484C13.0646 19.4484 12.1383 18.522 12.1383 17.3794Z" fill="#FC9100"/>
<path fill-rule="evenodd" clip-rule="evenodd" d="M11.4487 12.9656C11.4487 12.7371 11.6311 12.5518 11.8562 12.5518H20.0067C20.2317 12.5518 20.4142 12.7371 20.4142 12.9656V19.0346C20.4142 19.2631 20.2317 19.4484 20.0067 19.4484C19.7816 19.4484 19.5991 19.2631 19.5991 19.0346V13.3794H11.8562C11.6311 13.3794 11.4487 13.1941 11.4487 12.9656Z" fill="#FC9100"/>
<path fill-rule="evenodd" clip-rule="evenodd" d="M9.64309 10.7459C9.81173 10.5775 10.0405 10.4828 10.279 10.4828H21.5839C21.8224 10.4828 22.0511 10.5775 22.2198 10.7459C22.3884 10.9143 22.4831 11.1428 22.4831 11.381V20.6192C22.4831 20.7371 22.4599 20.8539 22.4147 20.9629C22.3695 21.0719 22.3033 21.1709 22.2198 21.2543C22.1363 21.3377 22.0371 21.4038 21.928 21.449C21.8189 21.4941 21.702 21.5173 21.5839 21.5173L17.2973 21.5172C17.1272 21.5172 16.9797 21.4064 16.9298 21.2484C16.7427 20.7282 16.3999 20.278 15.9478 19.9588C15.4921 19.6371 14.9478 19.4644 14.3898 19.4644C13.8319 19.4644 13.2876 19.6371 12.8319 19.9588C12.3797 20.2781 12.0368 20.7286 11.8497 21.249C11.7996 21.4067 11.6522 21.5172 11.4824 21.5172L10.279 21.5173C10.1609 21.5173 10.044 21.4941 9.93487 21.449C9.82576 21.4039 9.72662 21.3377 9.64311 21.2543C9.5596 21.1709 9.49335 21.0719 9.44816 20.9629C9.40296 20.8539 9.3797 20.7371 9.3797 20.6192V11.381C9.3797 11.1428 9.47444 10.9143 9.64309 10.7459ZM11.2214 20.7474C11.4748 20.1806 11.8767 19.6904 12.387 19.3302C12.9728 18.9166 13.6725 18.6946 14.3898 18.6946C15.1072 18.6946 15.8069 18.9166 16.3927 19.3302C16.9029 19.6904 17.3049 20.1806 17.5583 20.7474L21.5839 20.7475C21.6008 20.7475 21.6175 20.7442 21.6331 20.7377C21.6486 20.7313 21.6628 20.7218 21.6747 20.7099C21.6867 20.698 21.6961 20.6838 21.7026 20.6683C21.709 20.6527 21.7124 20.636 21.7124 20.6192V11.381C21.7124 11.347 21.6988 11.3143 21.6747 11.2903C21.6506 11.2662 21.618 11.2527 21.5839 11.2527H10.279C10.2449 11.2527 10.2122 11.2662 10.1881 11.2903C10.164 11.3143 10.1505 11.347 10.1505 11.381V20.6192C10.1505 20.636 10.1538 20.6527 10.1603 20.6683C10.1667 20.6838 10.1762 20.698 10.1881 20.7099C10.2001 20.7218 10.2142 20.7313 10.2298 20.7377C10.2454 20.7442 10.2621 20.7475 10.279 20.7475L11.2214 20.7474Z" fill="#FC9100"/>
</svg>
