<svg width="18" height="16" viewBox="0 0 18 16" fill="none" xmlns="http://www.w3.org/2000/svg">
<path d="M11.6786 10.8571C12.3686 10.8571 12.9286 11.4171 12.9286 12.1071V13.5371L12.9229 13.6143C12.7014 15.1336 11.3372 15.8636 9.04787 15.8636C6.76716 15.8636 5.38073 15.1421 5.08145 13.6407L5.07145 13.5357V12.1071C5.07145 11.4171 5.63145 10.8571 6.32145 10.8571H11.6786ZM12.0314 6.57143H16.3214C17.0114 6.57143 17.5714 7.13143 17.5714 7.82143V9.25143L17.5657 9.32858C17.3443 10.8479 15.98 11.5779 13.6907 11.5779L13.5707 11.5764C13.4606 11.185 13.2318 10.8373 12.9158 10.5813C12.5998 10.3253 12.2122 10.1736 11.8064 10.1471L11.6786 10.1429H11.02C11.3933 9.8419 11.6943 9.46109 11.901 9.02845C12.1077 8.59581 12.2147 8.12234 12.2143 7.64286C12.2143 7.26715 12.15 6.90715 12.0314 6.57143ZM1.67859 6.57143H5.96859C5.85002 6.90715 5.78573 7.26715 5.78573 7.64286C5.78573 8.59286 6.19859 9.44786 6.8543 10.0357L6.98002 10.1429H6.32145C5.42002 10.1429 4.66002 10.75 4.42859 11.5786L4.40502 11.5779C2.1243 11.5779 0.737875 10.8564 0.438589 9.355L0.428589 9.25V7.82143C0.428589 7.13143 0.988589 6.57143 1.67859 6.57143ZM9.00002 5.14286C9.66306 5.14286 10.2989 5.40625 10.7678 5.87509C11.2366 6.34394 11.5 6.97982 11.5 7.64286C11.5 8.3059 11.2366 8.94179 10.7678 9.41063C10.2989 9.87947 9.66306 10.1429 9.00002 10.1429C8.33698 10.1429 7.70109 9.87947 7.23225 9.41063C6.76341 8.94179 6.50002 8.3059 6.50002 7.64286C6.50002 6.97982 6.76341 6.34394 7.23225 5.87509C7.70109 5.40625 8.33698 5.14286 9.00002 5.14286ZM13.6429 0.857147C14.3059 0.857147 14.9418 1.12054 15.4106 1.58938C15.8795 2.05822 16.1429 2.69411 16.1429 3.35715C16.1429 4.02019 15.8795 4.65607 15.4106 5.12491C14.9418 5.59376 14.3059 5.85715 13.6429 5.85715C12.9798 5.85715 12.3439 5.59376 11.8751 5.12491C11.4063 4.65607 11.1429 4.02019 11.1429 3.35715C11.1429 2.69411 11.4063 2.05822 11.8751 1.58938C12.3439 1.12054 12.9798 0.857147 13.6429 0.857147V0.857147ZM4.35716 0.857147C5.0202 0.857147 5.65609 1.12054 6.12493 1.58938C6.59377 2.05822 6.85716 2.69411 6.85716 3.35715C6.85716 4.02019 6.59377 4.65607 6.12493 5.12491C5.65609 5.59376 5.0202 5.85715 4.35716 5.85715C3.69412 5.85715 3.05823 5.59376 2.58939 5.12491C2.12055 4.65607 1.85716 4.02019 1.85716 3.35715C1.85716 2.69411 2.12055 2.05822 2.58939 1.58938C3.05823 1.12054 3.69412 0.857147 4.35716 0.857147V0.857147Z" fill="#E22D4C"/>
</svg>
