<svg width="32" height="32" viewBox="0 0 32 32" fill="none" xmlns="http://www.w3.org/2000/svg">
<path d="M11.3632 6.43881L12.4392 6.09481C13.4482 5.77281 14.5262 6.29381 14.9582 7.31181L15.8182 9.33981C16.1922 10.2228 15.9842 11.2618 15.3042 11.9078L13.4092 13.7058C13.5262 14.7818 13.8882 15.8408 14.4942 16.8828C15.0697 17.8909 15.8416 18.7734 16.7642 19.4778L19.0402 18.7178C19.9022 18.4308 20.8422 18.7618 21.3702 19.5388L22.6032 21.3488C23.2182 22.2528 23.1072 23.4988 22.3442 24.2648L21.5272 25.0858C20.7132 25.9028 19.5502 26.1998 18.4752 25.8638C15.9352 25.0718 13.6022 22.7208 11.4722 18.8108C9.3392 14.8948 8.5862 11.5708 9.2142 8.84281C9.4782 7.69481 10.2952 6.77981 11.3632 6.43881Z" fill="#0080FF"/>
</svg>
