<svg width="70" height="70" viewBox="0 0 70 70" fill="none" xmlns="http://www.w3.org/2000/svg">
  <path fill-rule="evenodd" clip-rule="evenodd" d="M1.05921 0.805039C1.05921 0.896954 0.96463 0.996949 0.849035 1.02706C0.64086 1.08141 0.638863 1.17018 0.638863 10.4607V19.8393H10.2543H19.8696V10.2385V0.637787H10.4644C1.92869 0.637787 1.05921 0.653211 1.05921 0.805039ZM25.4392 3.41833V6.19887H24.1905C22.9842 6.19887 22.9395 6.20695 22.8783 6.43496C22.7955 6.74365 22.7936 8.65173 22.8759 8.86589C22.929 9.00439 23.1468 9.03188 24.1894 9.03188H25.4392V11.655V14.2782H26.7528C27.8503 14.2782 28.0664 14.3041 28.0664 14.4356C28.0664 14.5221 28.1373 14.593 28.224 14.593C28.3599 14.593 28.3816 14.9543 28.3816 17.2161V19.8393H29.6427H30.9037V20.9803C30.9037 21.6079 30.9332 22.2689 30.9694 22.4493L31.0351 22.7772H32.3355H33.6359V26.6509C33.6359 28.7814 33.6073 30.5992 33.5722 30.6905C33.519 30.8289 33.3024 30.8565 32.2709 30.8565C30.8135 30.8565 30.9074 30.9592 30.9052 29.3613L30.9037 28.3383H29.6427H28.3816V26.8693V25.4004H26.9104H25.4392V21.3082V17.2161H24.1256H22.8121V19.9967V22.7772H17.295H11.778V24.0888V25.4004H10.4644H9.15085V24.0888V22.7772L5.1313 22.7787C2.9205 22.7794 1.0054 22.8086 0.875307 22.8433L0.638863 22.9066V25.4126C0.638863 27.5702 0.660826 27.9186 0.796492 27.9186C0.884029 27.9186 0.954122 28.0119 0.954122 28.1284C0.954122 28.3271 1.02421 28.3383 2.2677 28.3383H3.58128V29.5974V30.8565H2.43847C1.80994 30.8565 1.1479 30.886 0.967257 30.9221L0.638863 30.9877V32.2337C0.638863 33.4097 0.650633 33.4797 0.849035 33.4797C0.965786 33.4797 1.05921 33.5497 1.05921 33.6371C1.05921 33.7664 1.24605 33.7945 2.11007 33.7945C2.74059 33.7945 3.16093 33.7525 3.16093 33.6895C3.16093 33.6318 3.25414 33.5846 3.36795 33.5846C3.56163 33.5846 3.57686 33.4979 3.6044 32.2468L3.63382 30.909H4.89486H6.15589L6.18395 33.6633L6.2119 36.4176H4.89664H3.58128V37.7292V39.0408H2.2677C1.02421 39.0408 0.954122 39.052 0.954122 39.2506C0.954122 39.3672 0.884029 39.4605 0.796492 39.4605C0.667026 39.4605 0.638863 39.6457 0.638863 40.4974C0.638863 41.7348 0.529783 41.6603 2.34651 41.6624L3.58128 41.6639V43.1329V44.6018H2.11007H0.638863V45.8487C0.638863 47.329 0.505298 47.2214 2.34651 47.2235L3.58128 47.225V45.9134V44.6018H4.89486H6.20843V45.8562V47.1105L6.54997 47.1721C6.73775 47.206 7.97914 47.22 9.30848 47.2032L11.7255 47.1725L11.755 45.8872L11.7845 44.6018H14.5102H17.236L17.2655 45.8872L17.295 47.1725L18.5823 47.202L19.8696 47.2315V45.9167V44.6018H18.5561H17.2425V43.1329V41.6639H20.0273H22.8121V39.0408V36.4176H24.0608C25.5345 36.4176 25.4355 36.5288 25.4377 34.8699L25.4392 33.7945H26.582C27.2106 33.7945 27.8726 33.8239 28.0532 33.86L28.3816 33.9256V36.4832V39.0408H26.9104H25.4392V41.8213V44.6018H26.9104H28.3816V45.9134V47.225H25.5968H22.8121V52.7336V58.2422H24.1256H25.4392V59.5538V60.8654H24.1905C22.9842 60.8654 22.9395 60.8735 22.8783 61.1015C22.7956 61.4095 22.7956 68.8203 22.8783 69.1283C22.9395 69.3563 22.9842 69.3644 24.1905 69.3644H25.4392V66.5839V63.8033H26.9104H28.3816V65.1149V66.4265H29.6427H30.9037V67.5676C30.9037 68.1951 30.9332 68.8562 30.9694 69.0365L31.0351 69.3644H35.0678H39.1004V67.8955V66.4265H40.414H41.7276V67.7381C41.7276 68.8339 41.7535 69.0496 41.8852 69.0496C41.9719 69.0496 42.0429 69.1205 42.0429 69.207C42.0429 69.3426 42.3975 69.3644 44.6043 69.3644H47.1658L47.2315 69.0365C47.2676 68.8562 47.2972 67.0147 47.2972 64.9444C47.2972 61.6684 47.3177 61.1802 47.4548 61.1802C47.5415 61.1802 47.6124 61.1094 47.6124 61.0228C47.6124 60.8913 47.8285 60.8654 48.926 60.8654H50.2396V59.5538V58.2422H51.5006H52.7616V59.5538V60.8654H54.0752C55.1727 60.8654 55.3888 60.8913 55.3888 61.0228C55.3888 61.1094 55.4597 61.1802 55.5464 61.1802C55.6823 61.1802 55.7041 61.5415 55.7041 63.8033V66.4265H54.2329H52.7616V65.1149V63.8033H51.5006H50.2396V65.1149V66.4265H51.5006H52.7616V67.6955C52.7616 68.8761 52.7763 68.9682 52.9718 69.0192C53.0874 69.0494 53.182 69.1395 53.182 69.2193C53.182 69.3337 53.416 69.3644 54.2854 69.3644C55.1962 69.3644 55.3888 69.3369 55.3888 69.207C55.3888 69.1205 55.4597 69.0496 55.5464 69.0496C55.6781 69.0496 55.7041 68.8339 55.7041 67.7381V66.4265H58.3312H60.9584V65.1149V63.8033H59.6448H58.3312V62.4918C58.3312 61.3959 58.3572 61.1802 58.4888 61.1802C58.5755 61.1802 58.6465 61.1094 58.6465 61.0228C58.6465 60.8871 59.0084 60.8654 61.2736 60.8654H63.9008V59.5538V58.2422H65.1495C66.6199 58.2422 66.5243 58.346 66.5265 56.747L66.5279 55.724H67.789C68.9799 55.724 69.05 55.7124 69.05 55.5142C69.05 55.3976 69.1201 55.3043 69.2076 55.3043C69.3449 55.3043 69.3653 54.803 69.3653 51.422C69.3653 48.9038 69.3284 47.5398 69.2602 47.5398C69.2024 47.5398 69.1551 47.469 69.1551 47.3824C69.1551 47.2467 68.7932 47.225 66.5279 47.225H63.9008V52.7336V58.2422H62.5872C61.4897 58.2422 61.2736 58.2163 61.2736 58.0849C61.2736 57.9983 61.2027 57.9275 61.116 57.9275C60.9775 57.9275 60.9584 57.1172 60.9584 51.2647V44.6018H59.6448H58.3312V43.1329V41.6639H57.0176H55.7041V40.4171C55.7041 38.9367 55.8379 39.0443 53.9946 39.0422L52.758 39.0408L52.7861 36.4438L52.8142 33.8469L54.1015 33.8174C55.1504 33.7934 55.3888 33.7594 55.3888 33.6338C55.3888 33.549 55.4583 33.4797 55.5432 33.4797C55.669 33.4797 55.703 33.2416 55.7271 32.1943L55.7566 30.909L57.0439 30.8795L58.3312 30.85V29.5942V28.3383H55.6121H52.893L52.8273 28.0104C52.7912 27.83 52.7616 26.5788 52.7616 25.2299V22.7772H50.0312H47.3006L47.2727 20.0229L47.2446 17.2686L45.9573 17.2391L44.67 17.2096V13.1207V9.03188H43.1988H41.7276V7.61716V6.20234L44.4861 6.17442L47.2446 6.14641L47.2742 4.86106L47.3037 3.57572H45.9868H44.67L44.6685 2.34284C44.6664 0.509777 44.7658 0.637787 43.3441 0.637787C42.3509 0.637787 42.1479 0.664543 42.1479 0.795176C42.1479 0.88258 42.0545 0.952565 41.9378 0.952565C41.7332 0.952565 41.7276 1.02255 41.7276 3.57572V6.19887H40.5716C39.6142 6.19887 39.4157 6.22594 39.4157 6.35626C39.4157 6.44283 39.3448 6.51365 39.2581 6.51365C39.1282 6.51365 39.1004 6.70346 39.1004 7.59208C39.1004 9.01257 39.1209 9.03188 40.6285 9.03188H41.7339L41.7045 10.3697L41.675 11.7075L39.0742 11.7355L36.4733 11.7636V13.0209V14.2782H35.1597H33.8461V13.1765C33.8461 12.2671 33.8186 12.0747 33.6885 12.0747C33.6018 12.0747 33.5309 12.0039 33.5309 11.9173C33.5309 11.7817 33.1747 11.76 30.9563 11.76H28.3816V10.3959V9.03188H29.485C30.1506 9.03188 30.5884 8.99022 30.5884 8.92695C30.5884 8.86924 30.6594 8.82203 30.7461 8.82203C30.875 8.82203 30.9037 8.64281 30.9037 7.83834C30.9037 7.29735 30.9332 6.70714 30.9694 6.52677L31.0351 6.19887H32.2928C33.4621 6.19887 33.5544 6.18408 33.6055 5.98902C33.6357 5.8736 33.7023 5.77917 33.7533 5.77917C33.8043 5.77917 33.8461 4.72183 33.8461 3.42956C33.8461 1.43785 33.8222 1.07071 33.6885 1.01951C33.6018 0.986352 33.5309 0.886882 33.5309 0.798429C33.5309 0.656988 33.0481 0.637787 29.485 0.637787H25.4392V3.41833ZM50.2396 10.2385V19.8393H59.8024H69.3653V10.3959C69.3653 2.07181 69.3466 0.952565 69.2076 0.952565C69.1209 0.952565 69.05 0.88174 69.05 0.795176C69.05 0.656464 67.9349 0.637787 59.6448 0.637787H50.2396V10.2385ZM17.2425 10.3959V17.2161H10.4119H3.58128V10.3959V3.57572H10.4119H17.2425V10.3959ZM66.5265 10.1598C66.5257 13.781 66.4965 16.8501 66.4617 16.98L66.3984 17.2161H59.6448H52.8912L52.8279 16.98C52.7931 16.8501 52.7639 13.781 52.7631 10.1598L52.7616 3.57572H59.6448H66.5279L66.5265 10.1598ZM6.52369 6.35626C6.52369 6.44283 6.45276 6.51365 6.36606 6.51365C6.22882 6.51365 6.20843 7.01499 6.20843 10.3959V14.2782H10.2543H14.3001V10.2385V6.19887H10.4119C7.0258 6.19887 6.52369 6.21923 6.52369 6.35626ZM28.0664 6.35626C28.0664 6.44283 28.1373 6.51365 28.224 6.51365C28.3554 6.51365 28.3816 6.7235 28.3816 7.77277V9.03188H26.9104H25.4392V7.61538V6.19887H26.7528C27.8503 6.19887 28.0664 6.22479 28.0664 6.35626ZM55.7703 6.43496C55.7355 6.56475 55.7063 8.3827 55.7055 10.4746L55.7041 14.2782H59.8024H63.9008V10.3959C63.9008 7.01499 63.8804 6.51365 63.7432 6.51365C63.6565 6.51365 63.5855 6.44283 63.5855 6.35626C63.5855 6.21923 63.0848 6.19887 59.7096 6.19887H55.8336L55.7703 6.43496ZM39.1004 17.0587V19.8393H40.414H41.7276V18.5277V17.2161H43.1988H44.67V18.5277V19.8393H43.1988H41.7276V22.6198V25.4004H43.1988H44.67V26.8693V28.3383H45.9187C47.4013 28.3383 47.2936 28.4717 47.2957 26.6332L47.2972 25.4004H48.7684H50.2396V28.1284V30.8565L51.2642 30.858C52.8703 30.8602 52.7616 30.7566 52.7616 32.2853V33.5846H51.5006H50.2396V32.2206V30.8565L49.0048 30.858C47.1712 30.8601 47.3089 30.7487 47.274 32.2582L47.2446 33.5321L45.9605 33.5616L44.6763 33.591L44.6469 32.25L44.6175 30.909L43.1725 30.8798L41.7276 30.8506V29.5945V28.3383H40.4789C39.2726 28.3383 39.2279 28.3302 39.1666 28.1022C39.1319 27.9723 39.1026 26.0601 39.1019 23.8527L39.1004 19.8393H37.7869H36.4733V21.1509C36.4733 22.2467 36.4473 22.4624 36.3156 22.4624C36.229 22.4624 36.158 22.5333 36.158 22.6198C36.158 22.7501 35.9595 22.7772 35.0021 22.7772H33.8461V21.3082V19.8393H35.1597H36.4733V17.0587V14.2782H37.7869H39.1004V17.0587ZM33.6129 18.5539L33.6425 19.8393H32.2731H30.9037V18.8556C30.9037 18.3146 30.9336 17.7229 30.97 17.5409L31.0363 17.2099L32.3099 17.2392L33.5834 17.2686L33.6129 18.5539ZM60.9584 24.0316V25.2859L61.2999 25.3485C61.4878 25.3828 62.138 25.3968 62.7448 25.3795L63.8482 25.3479L63.8778 24.0626L63.9073 22.7772H62.4328H60.9584V24.0316ZM6.20843 26.8693V28.3383H7.67964H9.15085V29.5974V30.8565H10.4006C11.4433 30.8565 11.661 30.829 11.7142 30.6905C11.7493 30.5992 11.778 29.3716 11.778 27.9624V25.4004H13.039H14.3001L14.3015 27.8924C14.3023 29.263 14.3315 30.4905 14.3663 30.6204L14.4296 30.8565H17.1497H19.8696V32.2206V33.5846H18.7662C18.1594 33.5846 17.6628 33.6264 17.6628 33.6772C17.6628 33.7282 17.5683 33.7947 17.4527 33.8249C17.2571 33.8759 17.2425 33.968 17.2425 35.1486V36.4176H18.5561H19.8696V37.7292V39.0408H18.5561H17.2425V40.3523V41.6639H14.5102H11.778V43.1329V44.6018H8.99322H6.20843V43.1329V41.6639H4.89486H3.58128V40.3523V39.0408H4.89486H6.20843V37.7292V36.4176H7.67964H9.15085V33.6371V30.8565H7.67964H6.20843V29.5974V28.3383H4.89486H3.58128V26.8693V25.4004H4.89486H6.20843V26.8693ZM25.4392 26.8693V28.3383H26.9104H28.3816V29.5974V30.8565H26.9104H25.4392V29.5974V28.3383H21.4057H17.3721L17.3087 28.1022C17.2739 27.9723 17.2447 27.3113 17.244 26.6332L17.2425 25.4004H21.3409H25.4392V26.8693ZM66.5279 26.5414C66.5279 27.169 66.4984 27.83 66.4623 28.0104L66.3966 28.3383H63.6775H60.9584V29.44C60.9584 30.3494 60.9859 30.5417 61.116 30.5417C61.2027 30.5417 61.2736 30.6126 61.2736 30.6991C61.2736 30.8279 61.4531 30.8565 62.2588 30.8565C62.8006 30.8565 63.3918 30.886 63.5724 30.9221L63.9008 30.9877V33.6994V36.4111L65.1881 36.4406L66.4754 36.4701L66.5049 37.7554L66.5345 39.0408H63.7464H60.9584L60.9569 36.5488C60.9562 35.1782 60.927 33.9506 60.8922 33.8207C60.832 33.5962 60.7779 33.5846 59.8014 33.5846C58.9852 33.5846 58.7617 33.6169 58.7135 33.742C58.6803 33.8286 58.5807 33.8994 58.4921 33.8994C58.352 33.8994 58.3312 34.2316 58.3312 36.4701V39.0408H59.6448H60.9584V40.3523V41.6639H62.272C63.3695 41.6639 63.5855 41.6898 63.5855 41.8213C63.5855 41.9079 63.6565 41.9787 63.7432 41.9787C63.8748 41.9787 63.9008 42.1944 63.9008 43.2903V44.6018H65.2144H66.5279V43.1329V41.6639H67.9466H69.3653V37.7816C69.3653 34.4007 69.3449 33.8994 69.2076 33.8994C69.1209 33.8994 69.05 33.8286 69.05 33.742C69.05 33.6108 68.8398 33.5846 67.789 33.5846H66.5279V32.2853C66.5279 30.7532 66.4118 30.8602 68.078 30.858C68.9647 30.8567 69.1551 30.8287 69.1551 30.6991C69.1551 30.6126 69.2024 30.5417 69.2602 30.5417C69.3273 30.5417 69.3653 29.6149 69.3653 27.971V25.4004H67.9466H66.5279V26.5414ZM25.4161 32.25L25.4455 33.5911L24.1551 33.5616L22.8646 33.5321L22.8347 32.3319C22.8183 31.6718 22.8292 31.0683 22.8589 30.9907C22.901 30.8815 23.1907 30.8564 24.1499 30.8794L25.3867 30.909L25.4161 32.25ZM12.1603 33.742C12.1271 33.8286 12.0275 33.8994 11.9389 33.8994C11.8046 33.8994 11.778 34.0817 11.778 35.0011C11.778 36.0328 11.7647 36.1028 11.5678 36.1028C11.4511 36.1028 11.3577 36.1728 11.3577 36.2602C11.3577 36.3901 11.165 36.4176 10.2543 36.4176H9.15085V37.7292V39.0408H7.67964H6.20843V40.3523V41.6639H7.67964H9.15085V40.3523V39.0408H13.1967H17.2425V37.7292V36.4176H15.9815C14.9306 36.4176 14.7204 36.3914 14.7204 36.2602C14.7204 36.1728 14.627 36.1028 14.5102 36.1028C14.3117 36.1028 14.3001 36.0328 14.3001 34.8437V33.5846H13.2605C12.4333 33.5846 12.2084 33.6168 12.1603 33.742ZM36.2368 33.8606C36.4628 33.9211 36.4733 33.9722 36.4733 35.0134C36.4733 35.9119 36.4456 36.1028 36.3156 36.1028C36.229 36.1028 36.158 36.1737 36.158 36.2602C36.158 36.3893 35.9735 36.4178 35.1334 36.4191C33.532 36.4213 33.6359 36.3258 33.6359 37.7939V39.0408H35.0546H36.4733V37.7292V36.4176H37.7869H39.1004V35.1716V33.9256L39.4288 33.86C39.6095 33.8239 40.8626 33.7945 42.2136 33.7945H44.67V36.4176V39.0408H45.9836H47.2972V37.7262V36.4117L48.7421 36.4409L50.187 36.4701L50.2151 39.067L50.2433 41.6639H52.9736H55.7041V43.1329V44.6018H52.9718H50.2396V43.1329V41.6639H48.7684H47.2972V43.1329V44.6018H45.9836H44.67V45.9134V47.225H43.1988H41.7276V50.0055V52.7861H43.1988H44.67V59.6063V66.4265H43.1988H41.7276V65.1149V63.8033H40.4789C38.9963 63.8033 39.104 63.9367 39.1019 62.0983L39.1004 60.8654H37.7869H36.4733V63.5812V66.2971L36.2368 66.3604C36.1067 66.3951 35.5156 66.4243 34.9233 66.425L33.8461 66.4265V65.3248C33.8461 64.7188 33.8043 64.223 33.7533 64.223C33.7023 64.223 33.6357 64.1286 33.6055 64.0132C33.5544 63.8181 33.4621 63.8033 32.2928 63.8033H31.0351L30.9694 63.4754C30.9332 63.2951 30.9037 62.7049 30.9037 62.1639C30.9037 61.3594 30.875 61.1802 30.7461 61.1802C30.6594 61.1802 30.5884 61.1094 30.5884 61.0228C30.5884 60.8929 30.3958 60.8654 29.485 60.8654H28.3816V59.5538V58.2422H26.9104H25.4392V55.5142V52.7861H26.9104H28.3816V50.0055V47.225H29.6427H30.9037V45.9134V44.6018H29.6427H28.3816V41.8213V39.0408H29.6427H30.9037V36.4876C30.9037 35.0833 30.9352 33.9028 30.9738 33.8644C31.0609 33.7773 35.9126 33.7738 36.2368 33.8606ZM36.4733 43.1329V47.225H35.1597C33.9162 47.225 33.8461 47.2362 33.8461 47.4349C33.8461 47.5503 33.7988 47.6447 33.741 47.6447C33.6729 47.6447 33.6359 48.9519 33.6359 51.3565C33.6359 53.3979 33.6064 55.2158 33.5703 55.3961L33.5046 55.724H32.2698H31.0351L30.9694 55.3961C30.9332 55.2158 30.9037 54.5547 30.9037 53.9272V52.7861H29.6427H28.3816V55.5124V58.2386L30.9825 58.2667L33.5834 58.2947L33.6129 59.5801L33.6425 60.8654H35.0546H36.4668L36.4963 59.5801L36.5258 58.2947L39.1267 58.2667L41.7276 58.2386V55.5142V52.7898L39.1267 52.7616L36.5258 52.7336L36.4978 49.9793L36.4698 47.225H37.7851H39.1004V45.9134V44.6018H40.414H41.7276V43.1329V41.6639H40.414H39.1004V40.3523V39.0408H37.7869H36.4733V43.1329ZM55.7041 51.2647C55.7041 54.7856 55.6838 55.3043 55.5464 55.3043C55.4589 55.3043 55.3888 55.3976 55.3888 55.5142C55.3888 55.7201 55.3192 55.724 51.5794 55.7225C49.4843 55.7218 47.6637 55.6926 47.5336 55.6579L47.2972 55.5946V51.4098V47.225H51.5006H55.7041V51.2647ZM0.638863 59.5538C0.638863 68.0766 0.654311 68.9447 0.80637 68.9447C0.898426 68.9447 0.998573 69.0391 1.02873 69.1546C1.08317 69.3624 1.17207 69.3644 10.4767 69.3644H19.8696V59.7637V50.1629H10.2543H0.638863V59.5538ZM50.2396 51.4745V52.7861H51.5006H52.7616V51.4745V50.1629H51.5006H50.2396V51.4745ZM17.2425 59.6063V66.4265H10.4119H3.58128V59.6063V52.7861H10.4119H17.2425V59.6063ZM6.20843 59.6063C6.20843 62.9872 6.22882 63.4886 6.36606 63.4886C6.45276 63.4886 6.52369 63.5594 6.52369 63.6459C6.52369 63.783 7.0258 63.8033 10.4119 63.8033H14.3001V59.7637V55.724H10.2543H6.20843V59.6063ZM66.5279 62.3344V63.8033H65.2144H63.9008V66.5839V69.3644H66.4754C68.7173 69.3644 69.05 69.3436 69.05 69.2038C69.05 69.1153 69.1209 69.0159 69.2076 68.9827C69.3337 68.9343 69.3653 68.7043 69.3653 67.8318C69.3653 67.1747 69.3236 66.7413 69.2602 66.7413C69.2024 66.7413 69.1551 66.6704 69.1551 66.5839C69.1551 66.4524 68.939 66.4265 67.8415 66.4265H66.5279V65.1149V63.8033H67.789C68.8398 63.8033 69.05 63.7771 69.05 63.6459C69.05 63.5594 69.1209 63.4886 69.2076 63.4886C69.3376 63.4886 69.3653 63.2975 69.3653 62.3981C69.3653 61.5255 69.3337 61.2955 69.2076 61.2471C69.1209 61.214 69.05 61.1145 69.05 61.026C69.05 60.8907 68.8513 60.8654 67.789 60.8654H66.5279V62.3344Z" fill="#F1F1F1"/>
</svg>
