<svg width="68" height="68" viewBox="0 0 68 68" fill="none" xmlns="http://www.w3.org/2000/svg">
<path d="M7.08317 7.08333C7.86557 7.08333 8.49984 6.44907 8.49984 5.66667C8.49984 4.88426 7.86557 4.25 7.08317 4.25C6.30077 4.25 5.6665 4.88426 5.6665 5.66667C5.6665 6.44907 6.30077 7.08333 7.08317 7.08333Z" fill="white"/>
<path d="M12.7502 7.08333C13.5326 7.08333 14.1668 6.44907 14.1668 5.66667C14.1668 4.88426 13.5326 4.25 12.7502 4.25C11.9678 4.25 11.3335 4.88426 11.3335 5.66667C11.3335 6.44907 11.9678 7.08333 12.7502 7.08333Z" fill="white"/>
<path d="M18.4167 7.08333C19.1991 7.08333 19.8333 6.44907 19.8333 5.66667C19.8333 4.88426 19.1991 4.25 18.4167 4.25C17.6343 4.25 17 4.88426 17 5.66667C17 6.44907 17.6343 7.08333 18.4167 7.08333Z" fill="white"/>
<path d="M66.5833 49.5833H64.345C64.3154 49.5294 64.2916 49.4724 64.2742 49.4133L65.8608 47.8267C65.9921 47.6943 66.096 47.5373 66.1665 47.3647C66.237 47.1921 66.2727 47.0073 66.2717 46.8208C66.2664 46.4457 66.1197 46.0865 65.8608 45.815L62.3333 42.3017V5.66667C62.3333 4.16377 61.7363 2.72243 60.6736 1.65973C59.6109 0.597022 58.1696 0 56.6667 0L5.66667 0C4.16377 0 2.72243 0.597022 1.65973 1.65973C0.597022 2.72243 0 4.16377 0 5.66667L0 55.25C0 55.6257 0.149256 55.9861 0.414932 56.2517C0.680609 56.5174 1.04094 56.6667 1.41667 56.6667H39.6667C39.6667 57.0424 39.8159 57.4027 40.0816 57.6684C40.3473 57.9341 40.7076 58.0833 41.0833 58.0833H43.3217C43.3513 58.1373 43.375 58.1943 43.3925 58.2533L41.8058 59.84C41.6745 59.9724 41.5707 60.1294 41.5002 60.302C41.4297 60.4746 41.3939 60.6594 41.395 60.8458C41.4002 61.2209 41.547 61.5802 41.8058 61.8517L45.815 65.8608C45.9467 65.9936 46.1034 66.099 46.276 66.1709C46.4487 66.2429 46.6338 66.2799 46.8208 66.2799C47.0078 66.2799 47.193 66.2429 47.3657 66.1709C47.5383 66.099 47.695 65.9936 47.8267 65.8608L49.4133 64.2742L49.5833 64.345V66.5833C49.5833 66.9591 49.7326 67.3194 49.9983 67.5851C50.2639 67.8507 50.6243 68 51 68H56.6667C57.0424 68 57.4027 67.8507 57.6684 67.5851C57.9341 67.3194 58.0833 66.9591 58.0833 66.5833V64.345L58.2533 64.2742L59.84 65.8608C59.9724 65.9921 60.1294 66.096 60.302 66.1665C60.4746 66.237 60.6594 66.2727 60.8458 66.2717C61.2209 66.2664 61.5802 66.1197 61.8517 65.8608L65.8608 61.8517C66.1197 61.5802 66.2664 61.2209 66.2717 60.8458C66.2727 60.6594 66.237 60.4746 66.1665 60.302C66.096 60.1294 65.9921 59.9724 65.8608 59.84L64.2742 58.2533C64.2916 58.1943 64.3154 58.1373 64.345 58.0833H66.5833C66.9591 58.0833 67.3194 57.9341 67.5851 57.6684C67.8507 57.4027 68 57.0424 68 56.6667V51C68 50.6243 67.8507 50.2639 67.5851 49.9983C67.3194 49.7326 66.9591 49.5833 66.5833 49.5833ZM2.83333 5.66667C2.83333 4.91522 3.13184 4.19455 3.6632 3.6632C4.19455 3.13184 4.91522 2.83333 5.66667 2.83333H56.6667C57.4181 2.83333 58.1388 3.13184 58.6701 3.6632C59.2015 4.19455 59.5 4.91522 59.5 5.66667V8.5H2.83333V5.66667ZM2.83333 53.8333V11.3333H59.5V42.16L58.2533 43.3925L58.0833 43.3217V41.0833C58.0833 40.7076 57.9341 40.3473 57.6684 40.0816C57.4027 39.8159 57.0424 39.6667 56.6667 39.6667H51C50.6243 39.6667 50.2639 39.8159 49.9983 40.0816C49.7326 40.3473 49.5833 40.7076 49.5833 41.0833V43.3217L49.4133 43.3925L47.8267 41.8058C47.6943 41.6745 47.5373 41.5707 47.3647 41.5002C47.1921 41.4297 47.0073 41.3939 46.8208 41.395C46.4457 41.4002 46.0865 41.547 45.815 41.8058L41.8058 45.815C41.547 46.0865 41.4002 46.4457 41.395 46.8208C41.3939 47.0073 41.4297 47.1921 41.5002 47.3647C41.5707 47.5373 41.6745 47.6943 41.8058 47.8267L43.3925 49.4133C43.375 49.4724 43.3513 49.5294 43.3217 49.5833H41.0833C40.7076 49.5833 40.3473 49.7326 40.0816 49.9983C39.8159 50.2639 39.6667 50.6243 39.6667 51V53.8333H2.83333ZM65.1667 55.25H63.3392C63.0249 55.2366 62.715 55.3281 62.4585 55.5102C62.202 55.6924 62.0134 55.9547 61.9225 56.2558C61.7586 56.8163 61.5354 57.3577 61.2567 57.8708C61.1291 58.1393 61.0892 58.441 61.1426 58.7334C61.1959 59.0258 61.3399 59.294 61.5542 59.5L62.8433 60.7892L60.9167 62.8433L59.5 61.5542C59.2831 61.3367 59.0014 61.1956 58.6973 61.1522C58.3932 61.1087 58.0833 61.1653 57.8142 61.3133C57.301 61.592 56.7596 61.8152 56.1992 61.9792C55.898 62.0701 55.6357 62.2587 55.4536 62.5152C55.2715 62.7717 55.1799 63.0815 55.1933 63.3958V65.1667H52.4167V63.3392C52.4301 63.0249 52.3385 62.715 52.1564 62.4585C51.9743 62.202 51.712 62.0134 51.4108 61.9225C50.8504 61.7586 50.309 61.5354 49.7958 61.2567C49.5267 61.1086 49.2168 61.0521 48.9127 61.0955C48.6086 61.1389 48.3269 61.28 48.11 61.4975L46.8208 62.7867L44.8233 60.9167L46.1125 59.6275C46.33 59.4106 46.4711 59.1289 46.5145 58.8248C46.5579 58.5207 46.5014 58.2108 46.3533 57.9417C46.0746 57.4285 45.8514 56.8871 45.6875 56.3267C45.5966 56.0255 45.408 55.7632 45.1515 55.5811C44.895 55.399 44.5851 55.3074 44.2708 55.3208H42.5V52.4167H44.3275C44.6418 52.4301 44.9516 52.3385 45.2081 52.1564C45.4646 51.9743 45.6532 51.712 45.7442 51.4108C45.9081 50.8504 46.1313 50.309 46.41 49.7958C46.5376 49.5274 46.5775 49.2256 46.5241 48.9333C46.4707 48.6409 46.3267 48.3727 46.1125 48.1667L44.8233 46.8775L46.8208 44.88L48.11 46.1692C48.3269 46.3866 48.6086 46.5277 48.9127 46.5712C49.2168 46.6146 49.5267 46.558 49.7958 46.41C50.309 46.1313 50.8504 45.9081 51.4108 45.7442C51.712 45.6532 51.9743 45.4646 52.1564 45.2081C52.3385 44.9516 52.4301 44.6418 52.4167 44.3275V42.5H55.25V44.3275C55.2366 44.6418 55.3281 44.9516 55.5102 45.2081C55.6924 45.4646 55.9547 45.6532 56.2558 45.7442C56.8163 45.9081 57.3577 46.1313 57.8708 46.41C58.1393 46.5376 58.441 46.5775 58.7334 46.5241C59.0258 46.4707 59.294 46.3267 59.5 46.1125L60.7892 44.8233L62.7867 46.8208L61.4975 48.11C61.28 48.3269 61.1389 48.6086 61.0955 48.9127C61.0521 49.2168 61.1086 49.5267 61.2567 49.7958C61.5354 50.309 61.7586 50.8504 61.9225 51.4108C62.0134 51.712 62.202 51.9743 62.4585 52.1564C62.715 52.3385 63.0249 52.4301 63.3392 52.4167H65.1667V55.25Z" fill="white"/>
<path d="M53.8303 48.1666C52.7096 48.1666 51.614 48.4989 50.6821 49.1216C49.7502 49.7443 49.0239 50.6293 48.595 51.6647C48.1661 52.7002 48.0539 53.8396 48.2725 54.9388C48.4912 56.038 49.0309 57.0477 49.8234 57.8402C50.6159 58.6327 51.6256 59.1724 52.7248 59.3911C53.824 59.6097 54.9634 59.4975 55.9989 59.0686C57.0343 58.6397 57.9193 57.9134 58.542 56.9815C59.1646 56.0496 59.497 54.954 59.497 53.8333C59.497 52.3304 58.9 50.889 57.8373 49.8263C56.7745 48.7636 55.3332 48.1666 53.8303 48.1666ZM53.8303 56.6666C53.2699 56.6666 52.7221 56.5004 52.2562 56.1891C51.7903 55.8778 51.4271 55.4353 51.2127 54.9175C50.9982 54.3998 50.9421 53.8301 51.0514 53.2805C51.1607 52.7309 51.4306 52.226 51.8268 51.8298C52.2231 51.4335 52.7279 51.1637 53.2776 51.0544C53.8272 50.9451 54.3969 51.0012 54.9146 51.2156C55.4323 51.4301 55.8748 51.7932 56.1861 52.2592C56.4975 52.7251 56.6637 53.2729 56.6637 53.8333C56.6637 54.5847 56.3651 55.3054 55.8338 55.8367C55.3024 56.3681 54.5818 56.6666 53.8303 56.6666ZM25.0861 25.9108C24.9545 25.778 24.7978 25.6726 24.6251 25.6007C24.4525 25.5288 24.2673 25.4917 24.0803 25.4917C23.8933 25.4917 23.7081 25.5288 23.5355 25.6007C23.3629 25.6726 23.2062 25.778 23.0745 25.9108L17.4078 31.5774C17.275 31.7091 17.1696 31.8658 17.0977 32.0385C17.0258 32.2111 16.9888 32.3963 16.9888 32.5833C16.9888 32.7703 17.0258 32.9555 17.0977 33.1281C17.1696 33.3007 17.275 33.4574 17.4078 33.5891L23.0745 39.2558C23.2062 39.3886 23.3629 39.4939 23.5355 39.5659C23.7081 39.6378 23.8933 39.6748 24.0803 39.6748C24.2673 39.6748 24.4525 39.6378 24.6251 39.5659C24.7978 39.4939 24.9545 39.3886 25.0861 39.2558C25.2189 39.1241 25.3243 38.9674 25.3962 38.7948C25.4682 38.6221 25.5052 38.437 25.5052 38.2499C25.5052 38.0629 25.4682 37.8778 25.3962 37.7051C25.3243 37.5325 25.2189 37.3758 25.0861 37.2441L20.4112 32.5833L25.0861 27.9224C25.2189 27.7907 25.3243 27.6341 25.3962 27.4614C25.4682 27.2888 25.5052 27.1036 25.5052 26.9166C25.5052 26.7296 25.4682 26.5444 25.3962 26.3718C25.3243 26.1992 25.2189 26.0425 25.0861 25.9108ZM44.9195 31.5774L39.2528 25.9108C38.9861 25.644 38.6242 25.4941 38.247 25.4941C37.8697 25.4941 37.5079 25.644 37.2412 25.9108C36.9744 26.1775 36.8245 26.5393 36.8245 26.9166C36.8245 27.2939 36.9744 27.6557 37.2412 27.9224L41.9161 32.5833L37.2412 37.2441C37.1084 37.3758 37.003 37.5325 36.9311 37.7051C36.8591 37.8778 36.8221 38.0629 36.8221 38.2499C36.8221 38.437 36.8591 38.6221 36.9311 38.7948C37.003 38.9674 37.1084 39.1241 37.2412 39.2558C37.3728 39.3886 37.5295 39.4939 37.7022 39.5659C37.8748 39.6378 38.06 39.6748 38.247 39.6748C38.434 39.6748 38.6192 39.6378 38.7918 39.5659C38.9644 39.4939 39.1211 39.3886 39.2528 39.2558L44.9195 33.5891C45.0523 33.4574 45.1577 33.3007 45.2296 33.1281C45.3015 32.9555 45.3385 32.7703 45.3385 32.5833C45.3385 32.3963 45.3015 32.2111 45.2296 32.0385C45.1577 31.8658 45.0523 31.7091 44.9195 31.5774ZM32.8637 24.0833C32.6773 24.0421 32.4846 24.039 32.2971 24.0742C32.1095 24.1093 31.931 24.182 31.7723 24.2879C31.6135 24.3937 31.4778 24.5305 31.3732 24.6901C31.2686 24.8497 31.1973 25.0288 31.1637 25.2166L28.3303 39.3833C28.2892 39.5696 28.2861 39.7623 28.3212 39.9498C28.3564 40.1374 28.4291 40.3159 28.5349 40.4747C28.6407 40.6334 28.7776 40.7692 28.9372 40.8738C29.0968 40.9783 29.2758 41.0496 29.4636 41.0833H29.747C30.0784 41.09 30.4017 40.9802 30.6605 40.7731C30.9194 40.566 31.0974 40.2747 31.1637 39.9499L33.997 25.7833C34.0381 25.597 34.0412 25.4042 34.0061 25.2167C33.9709 25.0292 33.8982 24.8506 33.7924 24.6919C33.6866 24.5331 33.5497 24.3974 33.3901 24.2928C33.2305 24.1882 33.0515 24.1169 32.8637 24.0833Z" fill="white"/>
</svg>
