<svg width="19" height="18" viewBox="0 0 19 18" fill="none" xmlns="http://www.w3.org/2000/svg">
<path d="M18.3859 6.33831L12.6901 5.51709L10.1439 0.396152C10.0743 0.255944 9.95993 0.142442 9.8186 0.0734507C9.46415 -0.100141 9.03343 0.0445188 8.85621 0.396152L6.31002 5.51709L0.614191 6.33831C0.457157 6.36057 0.313583 6.43401 0.20366 6.54529C0.0707685 6.68079 -0.00246073 6.86309 6.31408e-05 7.05213C0.00258702 7.24117 0.0806575 7.42149 0.21712 7.55345L4.33813 11.5394L3.36452 17.1677C3.34169 17.2987 3.35629 17.4333 3.40668 17.5564C3.45706 17.6795 3.54121 17.7862 3.64958 17.8643C3.75795 17.9424 3.8862 17.9887 4.0198 17.9982C4.1534 18.0077 4.28699 17.9798 4.40543 17.9177L9.50004 15.2605L14.5947 17.9177C14.7337 17.9912 14.8953 18.0157 15.0501 17.989C15.4404 17.9222 15.7029 17.555 15.6356 17.1677L14.662 11.5394L18.783 7.55345C18.8951 7.4444 18.9692 7.30197 18.9916 7.14618C19.0522 6.75671 18.7785 6.39618 18.3859 6.33831Z" fill="#FEC601"/>
</svg>
